<?xml version="1.0" standalone="no"?>
<!DOCTYPE svg PUBLIC "-//W3C//DTD SVG 20010904//EN"
 "http://www.w3.org/TR/2001/REC-SVG-20010904/DTD/svg10.dtd">
<svg version="1.0" xmlns="http://www.w3.org/2000/svg"
 width="8000.000000pt" height="3559.000000pt" viewBox="0 0 8000.000000 3559.000000"
 preserveAspectRatio="xMidYMid meet">
<metadata>
Created by potrace 1.16, written by Peter Selinger 2001-2019
</metadata>
<g transform="translate(0.000000,3559.000000) scale(0.100000,-0.100000)"
fill="#000000" stroke="none">
<path d="M11785 32169 c-885 -56 -1670 -629 -1999 -1459 -61 -155 -112 -344
-137 -514 -30 -197 -30 -485 0 -682 131 -871 732 -1584 1570 -1864 234 -78
458 -112 736 -111 384 1 694 75 1040 248 602 302 1051 874 1208 1538 40 169
57 325 57 530 0 283 -35 499 -122 755 -48 143 -166 384 -248 510 -354 540
-910 908 -1540 1020 -98 17 -381 42 -430 38 -8 0 -69 -4 -135 -9z m430 -994
c118 -26 225 -65 338 -123 369 -187 626 -526 714 -942 25 -119 25 -391 0 -510
-118 -558 -547 -977 -1095 -1071 -717 -122 -1395 342 -1549 1061 -14 64 -18
129 -18 265 0 242 31 385 125 582 194 401 577 683 1025 753 87 13 376 4 460
-15z"/>
<path d="M22788 28491 c-142 -46 -252 -155 -316 -315 -16 -38 -17 -259 -22
-2706 l-5 -2665 -1440 1436 c-939 936 -1457 1446 -1488 1464 -75 43 -159 65
-250 65 -220 0 -391 -119 -469 -326 l-23 -59 -5 -1288 -5 -1288 -185 188
c-102 103 -744 749 -1428 1435 -900 904 -1257 1255 -1295 1277 -87 49 -156 64
-274 59 -96 -4 -108 -7 -187 -46 -139 -69 -238 -198 -265 -346 -8 -41 -11
-457 -11 -1315 l0 -1256 -1438 1436 c-957 957 -1453 1446 -1485 1464 -161 92
-368 87 -523 -13 -76 -49 -126 -107 -172 -201 l-37 -75 -5 -2785 -5 -2785 -54
88 c-29 48 -99 149 -156 224 -630 842 -1547 1360 -2605 1473 -149 16 -561 16
-715 0 -626 -65 -1197 -272 -1715 -622 -833 -563 -1409 -1464 -1570 -2454 -12
-71 -22 -131 -23 -132 -1 -1 -59 -11 -127 -23 -1178 -197 -2173 -929 -2706
-1990 -458 -914 -517 -1976 -162 -2940 62 -167 195 -445 294 -610 475 -796
1252 -1396 2138 -1651 l130 -37 38 -183 c339 -1645 1098 -3214 2257 -4664
1024 -1281 2202 -2292 3551 -3045 1196 -668 2537 -1111 3892 -1284 537 -69
929 -90 1549 -83 476 5 677 16 1064 57 2016 215 4019 934 5690 2045 1046 696
1865 1463 2590 2430 452 602 772 1127 1109 1817 679 1388 1073 2944 1145 4523
15 311 25 15207 11 15305 -28 196 -168 356 -355 406 -41 11 -397 14 -1965 13
-1829 0 -1918 -1 -1972 -18z m3319 -8308 c-3 -5461 -6 -7394 -15 -7498 -54
-647 -106 -1041 -203 -1515 -341 -1667 -1081 -3225 -2136 -4497 l-126 -153
-99 0 -98 0 0 10148 c0 5582 -3 10311 -7 10510 l-6 362 1347 0 1346 0 -3
-7357z m-11469 1456 c-284 -7 -432 -22 -678 -71 -539 -107 -1059 -341 -1497
-675 l-33 -25 0 1623 0 1624 1235 -1235 1235 -1235 -262 -6z m7822 -4554 l0
-4330 -112 111 c-62 61 -264 256 -448 434 -184 178 -362 349 -394 381 l-59 58
31 128 c80 327 106 542 106 883 0 343 -30 598 -108 905 -169 670 -506 1251
-1007 1740 -269 262 -521 446 -859 628 -317 170 -814 333 -1155 378 -49 6 -93
15 -97 18 -4 4 -19 72 -32 152 -175 1035 -790 1951 -1686 2512 -128 80 -401
222 -525 272 -38 16 -71 29 -72 30 -1 0 10 32 25 70 l27 70 3 1290 3 1290
1442 -1447 c1587 -1591 1468 -1481 1633 -1515 102 -21 197 -8 299 42 116 56
196 146 247 281 l23 59 3 1293 3 1293 1354 -1348 1355 -1348 0 -4330z m-13780
3560 c460 -72 864 -240 1224 -509 543 -405 914 -988 1046 -1642 28 -144 50
-341 50 -464 0 -193 45 -318 151 -422 187 -182 479 -183 670 -1 97 92 149 217
149 357 0 196 33 446 87 661 253 1012 1104 1812 2128 2000 212 38 347 48 584
42 223 -6 333 -19 531 -63 502 -112 975 -381 1346 -767 468 -485 736 -1112
760 -1782 3 -88 12 -186 20 -217 37 -154 150 -280 303 -339 48 -19 88 -23 266
-30 227 -9 384 -30 575 -79 765 -195 1411 -718 1764 -1430 132 -266 214 -524
256 -806 23 -159 36 -436 26 -537 l-8 -69 -71 69 c-40 39 -92 81 -117 96 -142
81 -333 81 -480 0 -29 -16 -401 -381 -1032 -1012 l-988 -986 0 367 c0 409 -4
437 -72 544 -40 62 -3742 3791 -3807 3834 -88 59 -145 74 -271 74 -126 0 -184
-15 -270 -73 -58 -39 -3755 -3765 -3796 -3826 -18 -27 -43 -77 -56 -110 -21
-57 -22 -77 -26 -434 l-4 -374 -991 990 c-921 919 -996 992 -1053 1016 -141
62 -288 58 -427 -10 -69 -34 -134 -97 -1362 -1324 l-1290 -1289 -110 29 c-874
231 -1596 912 -1879 1771 -105 320 -141 571 -133 925 10 433 89 755 278 1135
133 269 302 503 514 715 416 416 940 681 1525 770 58 9 193 20 300 25 155 6
206 12 251 28 141 50 243 152 299 297 20 52 24 88 31 265 16 405 102 746 277
1095 276 553 695 969 1247 1240 296 145 581 228 910 265 126 14 552 4 675 -15z
m6688 -5880 l1591 -1600 1 -3322 0 -3323 -3185 0 -3185 0 0 3324 0 3324 1588
1600 c873 880 1590 1599 1593 1599 4 -1 722 -722 1597 -1602z m6011 -2310
l1081 -1047 0 -2444 0 -2444 -2270 0 -2270 0 0 2409 0 2408 1131 1137 1131
1136 58 -53 c32 -30 544 -525 1139 -1102z m-11751 -3525 l-3 -2405 -1020 -2
-1020 -3 -117 138 c-1215 1432 -1967 2921 -2298 4550 l-34 163 1115 1115 1114
1114 1133 -1132 1132 -1133 -2 -2405z"/>
<path d="M32850 28073 c-672 -46 -1176 -195 -1604 -473 -157 -103 -216 -150
-350 -280 -337 -328 -534 -714 -608 -1195 -28 -184 -30 -537 -5 -724 96 -692
446 -1167 1120 -1521 301 -158 617 -272 1377 -494 772 -226 1091 -366 1313
-575 123 -116 188 -214 239 -363 32 -92 33 -95 32 -273 0 -168 -2 -186 -28
-270 -108 -354 -395 -584 -836 -671 -124 -24 -436 -30 -565 -10 -271 41 -490
144 -653 306 -162 161 -269 388 -303 643 l-13 97 -865 0 -864 0 7 -117 c68
-1146 887 -1969 2196 -2207 272 -49 412 -60 760 -60 360 -1 495 11 765 65 861
172 1518 642 1850 1324 158 326 226 632 226 1015 0 883 -387 1476 -1236 1895
-305 150 -547 238 -1229 446 -506 154 -702 221 -890 303 -221 97 -365 186
-489 305 -176 168 -249 337 -249 577 0 516 315 852 855 915 133 15 382 6 508
-20 351 -71 614 -255 758 -531 57 -110 85 -194 101 -309 l12 -81 884 0 884 0
0 43 c-1 128 -56 404 -121 602 -316 964 -1196 1551 -2454 1635 -138 9 -417 11
-525 3z"/>
<path d="M53010 27095 l0 -785 -380 0 -380 0 0 -660 0 -660 380 0 379 0 4
-1682 c3 -1534 5 -1693 20 -1798 71 -472 214 -788 471 -1046 265 -264 598
-410 1097 -481 93 -13 239 -17 787 -20 l672 -4 0 679 0 680 -472 5 c-527 4
-562 8 -695 73 -88 42 -152 105 -193 187 -62 128 -60 46 -60 1805 l0 1602 710
0 710 0 0 660 0 660 -710 0 -710 0 0 785 0 785 -815 0 -815 0 0 -785z"/>
<path d="M39735 26414 c-22 -2 -89 -9 -150 -15 -145 -14 -372 -59 -517 -103
-678 -206 -1239 -659 -1608 -1299 -178 -309 -312 -685 -384 -1077 -49 -266
-60 -410 -60 -760 0 -350 11 -493 60 -760 259 -1408 1220 -2377 2504 -2526
198 -22 587 -15 773 15 465 75 871 249 1209 518 110 87 274 250 358 357 l75
94 3 -449 2 -449 815 0 815 0 0 3175 0 3175 -815 0 -815 0 0 -441 0 -440 -62
77 c-206 260 -488 484 -803 639 -273 134 -533 211 -846 250 -120 15 -472 27
-554 19z m870 -1439 c616 -107 1089 -525 1289 -1138 46 -140 80 -295 96 -442
13 -118 13 -391 -1 -513 -89 -824 -586 -1413 -1326 -1573 -143 -30 -429 -38
-577 -14 -338 53 -643 206 -884 445 -303 300 -483 700 -533 1179 -15 145 -6
483 16 611 73 431 243 766 521 1029 252 238 571 385 934 430 102 13 355 6 465
-14z"/>
<path d="M59515 26414 c-22 -2 -89 -9 -150 -15 -462 -46 -925 -220 -1310 -493
-264 -187 -523 -457 -710 -741 -454 -690 -643 -1621 -519 -2570 198 -1516
1210 -2587 2578 -2726 172 -17 564 -7 726 20 447 72 821 226 1160 477 120 88
362 326 435 427 l50 69 3 -451 2 -451 815 0 815 0 0 3175 0 3175 -815 0 -815
0 -2 -435 -3 -436 -75 92 c-393 479 -991 792 -1660 869 -100 11 -456 21 -525
14z m870 -1439 c357 -63 649 -217 897 -474 329 -340 498 -802 498 -1359 0
-281 -29 -475 -106 -710 -170 -520 -550 -910 -1043 -1072 -192 -63 -273 -74
-521 -74 -248 -1 -320 10 -512 74 -395 133 -750 444 -942 829 -280 558 -290
1326 -25 1881 245 513 715 848 1289 919 103 13 356 6 465 -14z"/>
<path d="M48508 26399 c-493 -35 -947 -200 -1314 -475 -92 -69 -253 -221 -336
-317 l-58 -68 0 386 0 385 -805 0 -805 0 0 -3175 0 -3175 805 0 805 0 0 1808
c0 1186 4 1847 11 1922 59 653 380 1100 912 1269 173 55 257 66 507 66 194 -1
239 -4 326 -23 537 -117 876 -453 1013 -1002 62 -251 61 -202 61 -2212 l0
-1828 805 0 806 0 -4 2058 c-3 1872 -5 2067 -20 2167 -78 509 -205 868 -422
1195 -170 256 -415 496 -666 651 -449 279 -1031 411 -1621 368z"/>
<path d="M63599 18034 c-196 -35 -374 -128 -515 -268 -120 -120 -197 -254
-239 -421 -89 -347 9 -697 261 -936 78 -73 136 -112 247 -164 168 -79 367
-113 563 -94 257 24 443 109 620 284 145 143 220 281 259 474 23 111 16 333
-12 436 -103 364 -393 624 -770 690 -105 18 -311 18 -414 -1z"/>
<path d="M59770 13255 l0 -4285 815 0 815 0 0 4285 0 4285 -815 0 -815 0 0
-4285z"/>
<path d="M34035 17149 c-1257 -106 -2322 -698 -3002 -1667 -689 -982 -915
-2330 -602 -3585 143 -576 416 -1121 788 -1572 95 -115 319 -343 441 -449 653
-566 1474 -897 2400 -967 199 -15 676 -6 865 16 941 110 1717 460 2319 1045
319 310 532 603 731 1005 86 173 188 417 220 523 l6 22 -938 0 -938 -1 -70
-125 c-402 -718 -1117 -1083 -2025 -1033 -1219 68 -2078 930 -2235 2244 -9 72
-18 216 -22 320 -29 921 291 1743 867 2228 336 282 715 447 1195 519 140 20
589 17 735 -6 391 -61 728 -204 1004 -426 92 -74 255 -244 329 -342 61 -82
132 -193 188 -295 l34 -63 937 0 c516 0 938 2 938 5 0 13 -113 302 -154 395
-356 798 -970 1430 -1760 1810 -425 205 -849 324 -1376 386 -161 19 -710 27
-875 13z"/>
<path d="M47680 16185 l0 -795 -380 0 -380 0 0 -670 0 -670 380 0 380 0 0
-1597 c0 -958 4 -1652 10 -1733 42 -573 208 -979 524 -1277 244 -231 567 -372
1021 -444 133 -21 175 -23 833 -26 l692 -4 0 685 0 686 -399 0 c-535 0 -652
13 -794 87 -115 60 -188 162 -225 311 -14 60 -16 229 -19 1690 l-4 1622 721 0
720 0 0 670 0 670 -720 0 -720 0 0 795 0 795 -820 0 -820 0 0 -795z"/>
<path d="M41820 15484 c-419 -48 -740 -142 -1068 -314 -772 -406 -1324 -1188
-1511 -2140 -207 -1062 -12 -2152 527 -2940 148 -216 375 -464 562 -614 195
-156 476 -322 685 -406 754 -303 1627 -272 2326 81 322 163 613 401 810 661
l59 79 0 -460 0 -461 820 0 820 0 0 3210 0 3210 -820 0 -820 0 0 -451 0 -452
-51 68 c-77 101 -250 277 -364 368 -356 286 -779 468 -1267 543 -98 15 -616
28 -708 18z m910 -1438 c780 -104 1333 -685 1456 -1531 21 -146 25 -496 6
-630 -66 -476 -224 -818 -512 -1106 -237 -238 -492 -375 -841 -451 -90 -19
-133 -22 -324 -22 -190 0 -233 3 -318 22 -685 153 -1177 671 -1321 1394 -35
171 -46 291 -46 478 0 348 62 645 191 920 157 331 441 620 765 776 159 76 395
142 559 157 100 9 289 5 385 -7z"/>
<path d="M54150 15483 c-107 -10 -313 -45 -427 -73 -947 -234 -1685 -937
-2020 -1925 -114 -337 -172 -653 -195 -1067 -31 -564 55 -1146 244 -1646 59
-156 195 -432 283 -572 175 -280 411 -545 670 -750 196 -156 504 -329 739
-415 632 -232 1384 -228 2003 11 401 154 767 418 1016 731 l82 104 3 -456 2
-455 820 0 820 0 0 3210 0 3210 -820 0 -820 0 -2 -446 -3 -446 -69 87 c-87
107 -275 290 -381 372 -359 273 -753 436 -1227 509 -100 16 -608 28 -718 17z
m923 -1438 c701 -93 1236 -588 1410 -1305 48 -197 61 -317 61 -560 0 -248 -14
-378 -64 -575 -132 -525 -460 -937 -915 -1151 -106 -49 -283 -106 -410 -131
-129 -25 -475 -25 -595 0 -351 75 -636 230 -871 474 -263 273 -429 621 -494
1033 -22 142 -31 455 -16 605 24 250 91 494 191 702 155 319 432 600 741 750
299 146 636 202 962 158z"/>
<path d="M76100 15484 c-240 -27 -444 -69 -629 -129 -1250 -405 -2031 -1614
-2031 -3147 0 -1025 335 -1916 954 -2534 179 -177 308 -280 512 -406 558 -345
1259 -478 1935 -368 667 109 1232 439 1613 943 l36 49 0 -461 0 -461 755 0
755 0 0 3210 0 3210 -755 0 -755 0 0 -451 0 -450 -62 78 c-382 480 -941 791
-1618 899 -76 12 -184 17 -390 19 -157 2 -301 1 -320 -1z m880 -1435 c340 -42
634 -168 887 -380 265 -223 469 -568 558 -944 107 -454 73 -977 -91 -1380
-190 -464 -549 -807 -1005 -959 -202 -67 -288 -80 -534 -80 -190 0 -234 3
-321 22 -209 45 -412 132 -594 253 -135 89 -343 299 -439 443 -153 230 -254
492 -307 796 -25 149 -31 513 -10 678 31 239 96 463 192 654 196 391 540 689
948 823 99 32 274 70 361 78 91 8 276 6 355 -4z"/>
<path d="M69433 15464 c-360 -43 -743 -173 -1018 -344 -182 -113 -382 -283
-518 -440 l-57 -65 0 388 0 387 -820 0 -820 0 0 -3210 0 -3210 820 0 820 0 0
1873 c0 1969 0 1947 44 2153 140 655 597 1049 1267 1093 769 50 1321 -342
1488 -1056 58 -248 55 -133 58 -2180 l4 -1883 814 0 815 0 0 1923 c0 1165 -4
1985 -10 2082 -30 477 -128 871 -304 1220 -235 465 -567 797 -1021 1020 -287
141 -578 220 -929 254 -148 15 -496 12 -633 -5z"/>
<path d="M62990 12180 l0 -3210 815 0 815 0 0 3210 0 3210 -815 0 -815 0 0
-3210z"/>
<path d="M52203 6179 c-188 -22 -414 -87 -585 -168 -283 -135 -537 -355 -715
-621 -353 -527 -422 -1251 -178 -1861 133 -331 353 -606 651 -815 99 -69 329
-183 452 -224 189 -61 316 -81 555 -87 238 -6 341 3 526 43 516 114 933 427
1165 874 43 83 126 272 126 287 0 2 -159 3 -353 3 l-353 0 -30 -62 c-112 -240
-330 -444 -563 -528 -167 -61 -246 -74 -456 -74 -209 -1 -288 11 -445 66 -173
60 -314 152 -446 290 -164 172 -266 374 -326 648 -20 93 -22 132 -22 340 0
204 3 248 22 336 61 284 161 480 335 661 153 158 326 258 545 315 200 51 471
51 676 -2 294 -75 535 -275 677 -562 l33 -68 353 0 353 0 -21 58 c-11 31 -52
120 -90 197 -267 543 -771 883 -1414 955 -105 12 -368 11 -472 -1z"/>
<path d="M58040 6179 c-650 -58 -1198 -426 -1485 -1000 -294 -585 -267 -1344
66 -1904 321 -539 875 -858 1529 -882 848 -31 1576 466 1834 1252 73 223 98
388 98 645 0 376 -84 701 -257 995 -366 622 -1041 960 -1785 894z m395 -554
c187 -31 348 -93 497 -192 146 -97 300 -276 388 -452 45 -91 105 -279 126
-396 28 -154 26 -463 -4 -613 -130 -649 -584 -1034 -1222 -1035 -632 -1 -1083
373 -1222 1013 -20 93 -22 133 -22 340 0 205 2 248 22 336 64 294 171 497 356
679 184 179 401 286 661 324 98 14 322 12 420 -4z"/>
<path d="M72605 6179 c-556 -74 -946 -416 -1016 -889 -15 -103 -6 -341 16
-429 69 -278 237 -473 528 -611 137 -65 263 -107 565 -190 319 -88 383 -109
508 -170 212 -103 306 -239 305 -443 0 -245 -164 -431 -439 -499 -120 -29
-312 -29 -427 1 -230 60 -379 207 -435 427 -11 43 -20 92 -20 111 l0 33 -316
0 -317 0 6 -117 c7 -152 33 -250 102 -388 159 -317 465 -522 900 -602 129 -24
465 -24 595 0 276 52 501 168 672 345 173 181 265 377 288 617 23 243 -29 473
-146 651 -160 243 -402 373 -1001 539 -371 102 -535 172 -644 273 -105 97
-152 232 -130 377 34 229 168 366 415 420 109 24 321 17 421 -15 107 -34 183
-78 256 -150 79 -78 127 -165 144 -265 l11 -70 327 -3 327 -2 -6 47 c-36 303
-128 499 -320 684 -158 150 -382 259 -629 305 -106 19 -433 28 -540 13z"/>
<path d="M77990 6179 c-737 -65 -1339 -535 -1578 -1230 -116 -335 -139 -718
-67 -1077 179 -883 917 -1482 1825 -1482 636 0 1205 295 1545 800 116 173 216
401 266 605 17 72 19 120 19 496 0 414 0 418 -25 514 -233 895 -1044 1457
-1985 1374z m465 -564 c502 -113 841 -479 942 -1018 28 -144 25 -507 -5 -643
-62 -285 -161 -480 -335 -661 -175 -182 -388 -293 -647 -339 -126 -22 -354
-22 -478 0 -526 95 -882 469 -989 1039 -27 145 -24 467 5 614 113 564 467 924
1002 1019 100 18 408 11 505 -11z"/>
<path d="M30360 4290 l0 -1860 300 0 300 0 0 805 0 805 635 0 635 0 0 260 0
260 -635 0 -635 0 0 535 0 535 780 0 780 0 0 260 0 260 -1080 0 -1080 0 0
-1860z"/>
<path d="M34750 4290 l0 -1860 305 0 305 0 0 1860 0 1860 -305 0 -305 0 0
-1860z"/>
<path d="M37820 4289 l0 -1860 748 4 c825 4 819 3 1088 72 833 213 1314 862
1314 1774 0 424 -105 800 -307 1105 -96 144 -282 329 -433 429 -299 198 -634
301 -1064 327 -83 5 -420 10 -748 10 l-598 0 0 -1861z m1360 1330 c63 -5 159
-19 212 -30 539 -108 879 -488 947 -1058 15 -120 15 -382 1 -497 -62 -506
-329 -851 -773 -999 -215 -71 -344 -85 -797 -85 l-350 0 0 1340 0 1340 323 0
c177 0 374 -5 437 -11z"/>
<path d="M43250 4290 l0 -1860 1035 0 1035 0 0 260 0 260 -730 0 -730 0 0 545
0 545 650 0 650 0 0 265 0 265 -650 0 -650 0 0 530 0 530 730 0 730 0 0 260 0
260 -1035 0 -1035 0 0 -1860z"/>
<path d="M47690 4290 l0 -1860 300 0 300 0 0 1860 0 1860 -300 0 -300 0 0
-1860z"/>
<path d="M68590 4290 l0 -1860 305 0 305 0 0 1860 0 1860 -305 0 -305 0 0
-1860z"/>
<path d="M62370 4275 l0 -1845 300 0 300 0 2 1194 3 1195 186 -417 c103 -229
343 -767 534 -1194 l348 -778 212 0 213 0 297 668 c164 367 402 901 529 1186
l231 519 3 -1186 2 -1187 305 0 305 0 0 1845 0 1845 -308 0 -307 0 -530 -1182
c-291 -651 -576 -1289 -635 -1419 l-105 -235 -635 1418 -635 1418 -307 0 -308
0 0 -1845z"/>
</g>
</svg>
